<svg width="24" height="24" viewBox="0 0 24 24" fill="none" xmlns="http://www.w3.org/2000/svg">
<path d="M23.9999 11.9498C24.0065 10.6341 23.5066 9.04555 21.1937 8.62224C21.0736 8.39313 20.9416 8.16292 20.7964 7.93163C21.9621 6.31803 21.8726 4.82117 20.5257 3.47486C19.1777 2.12637 17.6802 2.038 16.0647 3.20756C15.8366 3.06355 15.6085 2.93263 15.3804 2.8148C14.9634 0.510592 13.3895 0 12.0764 0C10.235 0 9.05186 0.972088 8.70804 2.86281C8.48101 2.98173 8.25179 3.11374 8.02149 3.25775C6.41371 2.09692 4.91508 2.1962 3.55398 3.5545C2.19725 4.91172 2.09902 6.41076 3.2571 8.01782C3.11193 8.24911 2.97876 8.47932 2.85761 8.70843C0.970406 9.05319 0.00988665 10.1758 6.31652e-05 12.0502C-0.00648583 13.3659 0.493421 14.9544 2.80631 15.3778C2.92637 15.6069 3.05844 15.8371 3.2047 16.0684C2.03789 17.682 2.12739 19.1788 3.4743 20.5251C4.8223 21.8736 6.32093 21.962 7.93526 20.7924C8.16338 20.9364 8.39151 21.0674 8.61963 21.1852C9.03658 23.4894 10.6105 24 11.9236 24C13.8719 24 14.9481 23.0279 15.292 21.1372C15.519 21.0183 15.7482 20.8863 15.9785 20.7422C18.5446 22.6722 20.446 20.4455 20.446 20.4455C21.7711 19.1919 21.9021 17.5892 20.7429 15.9811C20.8881 15.7498 21.0212 15.5196 21.1424 15.2916C23.0296 14.9468 23.9901 13.8242 23.9999 11.9498ZM14.6873 14.6861C13.7955 15.5785 12.9485 16.076 11.773 16.0062C10.664 15.9396 9.83774 15.2119 9.31273 14.6861C7.52922 12.9044 7.52922 11.0956 9.31273 9.31285C10.2754 8.34839 11.2272 7.90981 12.227 7.99382C13.3349 8.07892 14.1623 8.78807 14.6873 9.31394C16.4697 11.0956 16.4708 12.9044 14.6873 14.6872V14.6861Z" fill="#9CA1AB"/>
</svg>
