<svg width="24" height="24" viewBox="0 0 24 24" fill="none" xmlns="http://www.w3.org/2000/svg">
<path d="M11.9935 0C4.28618 0.048 0 4.41055 0 11.9804C0 19.5502 4.29054 23.9553 12.0065 24C19.8196 23.9542 23.8549 19.9233 24 11.9815C23.8669 4.30473 19.608 0.0490909 11.9935 0ZM14.8604 14.8604C14.6476 15.0731 13.9931 15.4724 13.3178 14.8604L11.2287 12.7713C11.0236 12.5662 10.9091 12.2891 10.9091 12V7.19564C10.9091 6.59345 11.3978 6.10473 12 6.10473C12.6022 6.10473 13.0909 6.59345 13.0909 7.19564V11.5484L14.8604 13.3178C15.2869 13.7444 15.2869 14.4338 14.8604 14.8604Z" fill="#9CA1AB"/>
</svg>
